Coordinates
version=1
nRows=13
nColumns=36
inDegrees=yes

Units are S.I. units (second, meters, Newtons, ...)
If the header above contains a line with 'inDegrees', this indicates whether rotational values are in degrees (yes) or radians (no).

endheader
time	pelvis_tilt	pelvis_list	pelvis_rotation	pelvis_tx	pelvis_ty	pelvis_tz	hip_flexion_r	hip_adduction_r	hip_rotation_r	knee_angle_r	knee_angle_r_beta	ankle_angle_r	subtalar_angle_r	mtp_angle_r	hip_flexion_l	hip_adduction_l	hip_rotation_l	knee_angle_l	knee_angle_l_beta	ankle_angle_l	subtalar_angle_l	mtp_angle_l	lumbar_extension	lumbar_bending	lumbar_rotation	arm_flex_r	arm_add_r	arm_rot_r	elbow_flex_r	pro_sup_r	arm_flex_l	arm_add_l	arm_rot_l	elbow_flex_l	pro_sup_l
      0.00000000	     -7.68539380	     -4.60082730	      6.81598200	     -0.02766119	      1.22757856	      0.12939588	     12.45698459	      2.03964577	     -2.02017993	      7.25329616	      0.12659390	     14.47740426	     -6.85653177	     -7.12244113	     13.67281956	     -6.71213777	     -7.36303874	      7.84983484	      0.13700546	     11.73123359	     -3.35912754	     -7.12244113	     15.47261700	      5.85578367	     -1.00535055	     -2.16932737	     -6.53486658	     22.62797724	     17.23188883	     67.80769025	    -10.18435189	     -9.37874302	      3.12934665	     83.08860654	     84.52683753
      0.01666670	     -4.61589087	     -3.75168055	      6.55163058	     -0.02714490	      1.23324271	      0.12993693	      9.02969387	      1.99700260	     -0.68840270	      6.36182647	      0.11103482	     15.29277002	     -7.54968409	     -7.18989823	      9.47825963	     -6.17329102	     -8.73907211	      6.80381529	      0.11874898	     13.51997642	     -0.69203892	     -7.18989823	     11.96989409	      5.50997838	     -0.03264542	     -1.95893208	     -6.57296136	     22.07357954	     18.77946774	     68.36776536	     -9.00171346	     -8.35082405	      2.30559673	     85.09466922	     82.75491526
      0.03333330	     -4.27924818	     -3.13895027	      6.16988701	     -0.02750935	      1.23528960	      0.12995826	      8.34500993	      1.55782935	     -0.75916867	      5.53152833	      0.09654338	     15.07252762	     -7.82828819	     -7.31878351	      8.69549611	     -5.61147815	     -9.66097846	      6.30016723	      0.10995866	     14.48811571	      1.57309894	     -7.31878351	     11.36216255	      4.98432415	      0.48860457	     -1.85446384	     -6.39677187	     19.91035915	     18.67831829	     77.76872904	     -9.06895568	     -7.68546874	      0.73135521	     86.38430766	     84.15289858
      0.05000000	     -2.81496932	     -2.72394081	      5.70093028	     -0.02943660	      1.23586080	      0.13115984	      6.73539079	      1.24071395	     -0.42489007	      5.18923754	      0.09056928	     15.28823863	     -7.51346206	     -7.39264316	      6.55690660	     -5.33896651	    -10.18448785	      5.35539656	      0.09346930	     14.95999037	      2.97223034	     -7.39264316	      8.99693782	      4.67711748	      1.66759790	     -1.99347415	     -5.65885171	     12.59742228	     19.47091995	     82.93095167	     -8.30396687	     -7.31600962	      0.60767997	     87.29803798	     82.56117872
      0.06666670	     -1.96451059	     -2.55617774	      5.32880864	     -0.02939326	      1.23802487	      0.13229930	      5.66795195	      1.15474108	     -0.20057067	      4.89864273	      0.08549744	     15.08503049	     -7.60903149	     -7.40377867	      5.17918597	     -5.24978830	    -10.51567772	      4.61822412	      0.08060322	     15.14951991	      3.90180153	     -7.40377867	      7.61793797	      4.55097061	      1.84248507	     -1.51483433	     -5.27019374	     11.60061435	     19.45676786	     82.28861803	     -8.38069282	     -7.04750437	      0.17387973	     88.22974316	     81.22314977
      0.08333330	     -1.39977630	     -2.47480194	      5.22382889	     -0.02822295	      1.24454428	      0.13248683	      4.79584739	      1.14010828	     -0.27972502	      4.59112004	      0.08013016	     14.63126369	     -7.35757660	     -7.44041761	      4.19135165	     -5.23702285	    -11.18749543	      4.14125746	      0.07227858	     15.02453422	      3.94262352	     -7.44041761	      6.74769643	      4.53212726	      2.13668979	     -1.60960601	     -4.52054136	      5.45955748	     19.59209453	     90.59858198	     -7.77985004	     -7.00689397	      0.62216077	     87.71953591	     83.24875941
      0.10000000	     -0.77414183	     -2.37769814	      5.05258040	     -0.02912804	      1.24193232	      0.13270662	      3.93241000	      1.11842285	     -0.34943537	      4.43021485	      0.07732184	     14.58773900	     -7.13674247	     -7.45013406	      3.35057005	     -5.15346461	    -11.34219438	      3.84392193	      0.06708909	     15.12642511	      4.43850484	     -7.45013406	      5.67149317	      4.54750151	      2.07611919	     -1.19480232	     -4.33866845	      4.99735442	     19.62479113	     89.41225435	     -7.51377960	     -7.11742500	      0.83404125	     88.11560018	     82.07095700
      0.11666670	     -0.28786849	     -2.32018418	      4.93657888	     -0.02919697	      1.24378394	      0.13342737	      3.23056707	      1.14613477	     -0.18973500	      4.21552517	      0.07357479	     14.44182763	     -7.21542567	     -7.45474933	      2.71147536	     -5.10835800	    -11.28431577	      3.61738752	      0.06313532	     14.99747795	      4.78219091	     -7.45474933	      4.89061361	      4.57210090	      2.10358556	     -0.75515711	     -4.17607017	      4.45709452	     19.21149833	     88.86791571	     -7.10167927	     -7.24377169	      1.27296351	     87.94278611	     81.80598587
      0.13333330	      0.00936630	     -2.29936870	      4.81645504	     -0.03030295	      1.24165858	      0.13360781	      2.81656623	      1.19261964	     -0.10427966	      4.08130353	      0.07123218	     14.42926352	     -7.32200626	     -7.47187235	      2.35859598	     -5.10533521	    -11.43462926	      3.49252911	      0.06095613	     14.99051861	      5.08478377	     -7.47187235	      4.24344810	      4.61608865	      2.25356533	     -0.64174113	     -3.95820328	      1.63670710	     19.66836704	     94.01088157	     -6.75869676	     -7.39861461	      1.34454012	     87.95527885	     89.41842481
      0.15000000	      0.29857081	     -2.26565686	      4.75819261	     -0.03069812	      1.24301622	      0.13363122	      2.47091376	      1.20866987	     -0.10395169	      3.97715336	      0.06941442	     14.29124522	     -7.35787992	     -7.47439817	      2.08139624	     -5.07581212	    -11.24920994	      3.41095165	      0.05953234	     14.82309225	      5.06194653	     -7.47439817	      3.67903455	      4.65495548	      2.24351686	     -0.29420231	     -3.93798887	      1.41543448	     19.57266960	     92.81391980	     -6.42671095	     -7.58547214	      1.87117202	     87.74783198	     88.16671825
      0.16666670	      0.57759015	     -2.23716396	      4.68343037	     -0.03068480	      1.24373190	      0.13426263	      2.15663312	      1.24185024	     -0.00795865	      3.89543727	      0.06798821	     14.21301641	     -7.40279149	     -7.47753680	      1.78109139	     -5.07385392	    -11.23511449	      3.28763183	      0.05738000	     14.67862875	      5.12134112	     -7.47753680	      3.18889815	      4.67674322	      2.29348163	     -0.14172837	     -3.94754695	      1.19601652	     19.72446254	     91.29283840	     -6.14190833	     -7.76539431	      2.35326858	     87.63932208	     86.94116510
      0.18333330	      0.81705955	     -2.23585607	      4.64380819	     -0.03156723	      1.24266332	      0.13554325	      1.90900896	      1.32267338	      0.09056323	      3.78702290	      0.06609602	     14.11968391	     -7.50887042	     -7.48088112	      1.57456580	     -5.12941673	    -11.17991433	      3.22283717	      0.05624912	     14.57487751	      5.06095487	     -7.48088112	      2.70718657	      4.68882314	      2.38015573	      0.04966159	     -3.93877954	      1.03610068	     19.85457143	     89.34895165	     -5.83492846	     -7.96743490	      2.87416776	     87.51209011	     85.42387784
      0.20000000	      0.84628887	     -2.19950583	      4.53469170	     -0.03107359	      1.24777919	      0.13624287	      1.91067105	      1.36621717	      0.25848359	      3.69593531	      0.06450624	     14.07655024	     -7.40087727	     -7.48095449	      1.50807485	     -5.20303784	    -11.20628340	      3.28496888	      0.05733352	     14.47813968	      5.11656911	     -7.48095449	      2.55256951	      4.61892055	      2.30634776	      0.19746755	     -3.89220108	      1.05840107	     20.00238360	     89.44430627	     -5.85588449	     -7.97032276	      2.90411274	     87.39363989	     85.56780044
